<svg xmlns="http://www.w3.org/2000/svg" viewBox="0 0 261 261"><defs><filter id="a" x="0" y="0" width="261" height="261" filterUnits="userSpaceOnUse"><feOffset dy="2"/><feGaussianBlur stdDeviation="7.5" result="blur"/><feFlood flood-opacity=".1"/><feComposite operator="in" in2="blur"/><feComposite in="SourceGraphic"/></filter></defs><g data-name="Group 24556"><g filter="url(#a)" data-name="Group 24458"><circle data-name="Ellipse 34" cx="108" cy="108" r="108" transform="translate(22.5 20.5)" fill="#fff"/></g><path data-name="Path 4109" d="M114.1 157.49a3.08 3.08 0 0 1 2.78 1.62l-1.08.54a1.93 1.93 0 0 0-1.7-1.02c-.8 0-1.68.41-1.68 1.15v2.7c0 .75.8 1.15 1.69 1.15a1.86 1.86 0 0 0 1.69-1.01l1.08.47a3.02 3.02 0 0 1-2.77 1.7c-1.42 0-2.91-.75-2.91-2.3v-2.7c0-1.56 1.42-2.3 2.9-2.3Zm11.1 4.25h-3.32v3.05h-1.21v-7.24h1.21v3.04h3.32v-3.04h1.21v7.23h-1.21Zm7.1-4.19h1.28l2.7 7.24h-1.29l-.74-1.9h-2.7c-.27.68-.4 1.15-.68 1.9h-1.28Zm.94 2.3-.2-1.14h-.14l-.27 1.14-.6 1.83h1.89l-.68-1.83Zm7.5.88v4.06h-1.22v-7.24h1.29l2.64 4.26.74 1.42h.07l-.2-1.56v-4.12h1.22v7.23h-1.42l-2.57-4.19-.68-1.35h-.07l.2 1.49Zm9.4 0v4.06h-1.22v-7.24h1.29l2.63 4.26.75 1.42h.06l-.2-1.56v-4.12h1.22v7.23h-1.42l-2.57-4.19-.68-1.35h-.07l.2 1.49Zm13.18-2.02h-3.72v1.82h3.45v1.22h-3.45v1.82h3.72v1.22h-4.93v-7.24h4.93Zm9.13 6.08h-4.67v-7.24H169v6.02h3.45v1.21Zm20.41-72v2.23h-.47v-2.23h-.81v-.34h2.03v.34h-.75Zm3.72 2.23v-2.16l-.88 2.16h-.27l-.88-2.16v2.16h-.4v-2.57h.67l.75 1.96.74-1.96h.68v2.57h-.4Zm-24.13-2.77v54.55h-10.88V92.26Zm-25.28 14.94c-1.42 4.19-9.54 28.53-9.8 29.2a.79.79 0 0 1-.82.54.84.84 0 0 1-.8-.54c-.2-.68-8.39-25.01-9.8-29.2H114.5c1.42 4.19 9.74 29 10.95 32.58a11.6 11.6 0 0 0 22.04 0c1.22-3.58 9.53-28.39 10.95-32.58h-11.28Zm-91.4-4.87V92.25h44.68v10.07H84.1v44.49H72.12v-44.49Z" fill="#e7be2b"/><path data-name="Path 4110" d="M102.61 146.8v-19.87a8.96 8.96 0 0 1 8.93-8.93V107.2a19.8 19.8 0 0 0-19.74 19.74v19.87Z" fill="#e7be2b"/><path data-name="Path 4111" d="M180.15 145.11V93.87a1.65 1.65 0 0 1 2.91-1.08l21.77 25.62a1.65 1.65 0 0 1 0 2.16l-21.77 25.63a1.64 1.64 0 0 1-2.9-1.09Z" fill="#862a80"/></g></svg>