<svg xmlns="http://www.w3.org/2000/svg" viewBox="0 0 261 261"><defs><filter id="a" x="0" y="0" width="261" height="261" filterUnits="userSpaceOnUse"><feOffset dy="2"/><feGaussianBlur stdDeviation="7.5" result="blur"/><feFlood flood-opacity=".1"/><feComposite operator="in" in2="blur"/><feComposite in="SourceGraphic"/></filter></defs><g data-name="Group 24586"><g filter="url(#a)" data-name="Group 24458"><circle data-name="Ellipse 34" cx="108" cy="108" r="108" transform="translate(22.5 20.5)" fill="#fff"/></g><path data-name="Path 4232" d="M55.88 91.12h149.23v74.76H55.88Z" fill="#002d56"/><path data-name="Path 4233" d="M84.77 153.42v-16.9l-2.7-2.7h19.5v-10.73h-16.8v-8.88h17l10.62-10.63H68.34v49.84Zm24.14-25.79 6.09 6.18h16.7l1.07 1.16v6.18l-1.45 1.45h-15.55l-8.7 8.7v2.12h34.97l7.15-7.15v-17.09l-6.18-6.08H126.3l-1.06-1.16v-6.29l1.35-1.44h18.25l4.16-3.87v-6.76h-29.08l-11 11.1Zm77.56 7.73h-19.8l3.29 3.28v4.25h22.8v10.53h-36.51v-22.6l6.18-6.18h15.35l1.16-1.06v-8.99l-.96-.96h-6.96l-.96.96v4.54h-13.72v-8.6l7.05-6.95h22.02l7.34 7.24v18.36Zm12.94 18.06h-.48v-2.12l-.49 2.12h-.48l-.48-2.12v2.12H197v-2.51h.77l.48 2.03.48-2.03h.78v2.51Zm-3.47 0h-.49v-2.03h-.77v-.48h2.03v.48h-.77Z" fill="#fff"/></g></svg>