<svg xmlns="http://www.w3.org/2000/svg" viewBox="0 0 261 261"><defs><filter id="a" x="0" y="0" width="261" height="261" filterUnits="userSpaceOnUse"><feOffset dy="2"/><feGaussianBlur stdDeviation="7.5" result="b"/><feFlood flood-opacity=".1"/><feComposite operator="in" in2="b"/><feComposite in="SourceGraphic"/></filter></defs><g filter="url(#a)"><circle cx="108" cy="108" r="108" transform="translate(22.5 20.5)" fill="#fff"/></g><path d="M81.7 116.74H66.6V92.55h15.1v24.19Zm-18.14 3.01h21.17V89.52H63.56Z" fill="#fcd800"/><path d="M99.85 103.19h-1.31a156.51 156.51 0 0 1-5.13-7.57h-.01v7.57h-1.45V92.64h1.3c1.72 2.41 3.43 4.8 5.12 7.52h.03v-7.52h1.45Zm4.13-10.56-3.65 10.56h1.57l.92-2.88h3.19l.82 2.88h2.02l-3.36-10.56Zm-.69 6.38c.42-1.38.85-2.67 1.23-4.3h.03c.42 1.64.8 2.92 1.2 4.3Zm7.27 4.18v-9.15h-2.77v-1.4h7.35v1.4h-2.77v9.15Zm5.17-10.55v10.55h1.8V92.64Zm7.39 10.73c2.76 0 4.48-2.46 4.48-5.61 0-2.97-1.9-5.32-4.48-5.32s-4.48 2.35-4.48 5.32c0 3.15 1.71 5.61 4.48 5.61m0-1.51c-1.89 0-2.56-2.08-2.56-4.1 0-1.95.76-3.8 2.56-3.8s2.54 1.85 2.54 3.8c0 2.02-.66 4.1-2.54 4.1m13.48 1.33h-1.3a156.51 156.51 0 0 1-5.14-7.57v7.57h-1.46V92.64h1.31c1.72 2.41 3.43 4.8 5.12 7.52h.04v-7.52h1.44v10.55Zm4.14-10.56-3.65 10.56h1.56l.93-2.88h3.18l.83 2.88h2.02l-3.36-10.56Zm-.7 6.38c.41-1.38.84-2.67 1.22-4.3h.03c.42 1.64.8 2.92 1.2 4.3Zm6.1-6.38h1.79v9.14h3.57v1.42h-5.36Zm-47.4 19.4v4.35a8.35 8.35 0 0 1-3.01.66c-3.1 0-5.07-2.42-5.07-5.52a5.13 5.13 0 0 1 5.13-5.4 4.5 4.5 0 0 1 2.57.82l-.6 1.25a3.93 3.93 0 0 0-1.92-.56c-1.93 0-3.24 1.53-3.24 3.92 0 2.5 1.5 3.98 3.05 3.98a2.68 2.68 0 0 0 1.27-.25v-3.25h1.82Zm6.47-4.32h-3.02v2.9h2.96v1.42h-2.96v3.4h3.56v1.43h-5.36v-10.57h4.82Zm5.58 9.32c2.76 0 4.48-2.46 4.48-5.6 0-2.95-1.9-5.32-4.48-5.32s-4.48 2.36-4.48 5.32c0 3.14 1.72 5.6 4.48 5.6m0-1.5c-1.89 0-2.55-2.08-2.55-4.1 0-1.95.75-3.8 2.55-3.8s2.56 1.86 2.56 3.8c0 2.02-.67 4.1-2.56 4.1m13.17-3.5v4.36a8.35 8.35 0 0 1-3 .65c-3.1 0-5.07-2.41-5.07-5.52a5.13 5.13 0 0 1 5.13-5.4 4.53 4.53 0 0 1 2.57.82l-.6 1.25a3.93 3.93 0 0 0-1.93-.55c-1.93 0-3.24 1.52-3.24 3.91 0 2.5 1.52 3.99 3.06 3.99a2.68 2.68 0 0 0 1.27-.26v-3.24h1.8Zm8.06 4.83-2.12-4.38a3.56 3.56 0 0 0 1.82-3.14c0-2.05-1.26-3.05-3.28-3.05h-2.82v10.56h1.81v-3.98h.82l1.7 3.98Zm-4.58-9.15h.8a1.53 1.53 0 0 1 1.67 1.71 1.86 1.86 0 0 1-1.72 2.1c-.18.01-.6.02-.75.04Zm8.27-1.41-3.66 10.55h1.57l.92-2.87h3.19l.83 2.87h2.02l-3.36-10.56Zm-.7 6.37c.41-1.38.84-2.67 1.22-4.3h.03c.42 1.64.8 2.92 1.2 4.3Zm8.7-1.16c-.18.01-.62.03-.75.05v-3.85h.82a1.52 1.52 0 0 1 1.65 1.71 1.86 1.86 0 0 1-1.72 2.1m.26-5.22h-2.83v10.55h1.81v-3.98h.82a3.45 3.45 0 0 0 3.47-3.53c0-2.06-1.26-3.05-3.27-3.05m11.65 10.55h-1.8v-5.07h-3.75v5.07h-1.8V106.3h1.8v4.06h3.75v-4.03h1.8Zm1.74-10.55v10.56h1.8V106.3Zm9.94 1.91a3.84 3.84 0 0 0-1.85-.59c-1.84 0-3.2 1.53-3.2 3.92 0 2.5 1.49 3.98 3.24 3.98a3.44 3.44 0 0 0 1.81-.52l.5 1.3a4.63 4.63 0 0 1-2.38.73c-3.1 0-5.07-2.42-5.07-5.52a5.1 5.1 0 0 1 5.1-5.4 4.46 4.46 0 0 1 2.43.81Zm-85.82 59.28-16.63-38.76h8.93l8.68 20.96 9.6-21.98 9.67 21.98 8.67-20.96h8.47l-16.58 38.76-10.43-23.16Zm43.67-38.76h8.21v37.22h-8.2Zm18.25 0h8.21v30.5h15.93l-2.6 6.73H143.4Zm38.62 6.73v23.76h3.46a11.53 11.53 0 0 0 11.77-11.88c0-6.47-4.7-11.88-11.67-11.88Zm4.08-6.73c10.8 0 19.42 8 19.42 18.6s-8.62 18.62-19.42 18.62h-12.3v-37.22Z"/></svg>