<svg xmlns="http://www.w3.org/2000/svg" viewBox="0 0 261 261"><defs><filter id="a" x="0" y="0" width="261" height="261" filterUnits="userSpaceOnUse"><feOffset dy="2"/><feGaussianBlur stdDeviation="7.5" result="blur"/><feFlood flood-opacity=".1"/><feComposite operator="in" in2="blur"/><feComposite in="SourceGraphic"/></filter></defs><g data-name="Group 24585"><g filter="url(#a)" data-name="Group 24458"><circle data-name="Ellipse 34" cx="108" cy="108" r="108" transform="translate(22.5 20.5)" fill="#fff"/></g><path data-name="Path 4229" d="M56.06 89.12h148.88v78.76H56.06Z" fill="#002d56"/><path data-name="Path 4230" d="M198.94 154.76h-.51v-2.24l-.5 2.24h-.52l-.5-2.24v2.24h-.52v-2.65h.82l.5 2.14.52-2.14h.81v2.65Zm-3.67 0h-.5v-2.14h-.82v-.51h2.14v.5h-.82Z" fill="#fff"/><g data-name="Group 24574"><path data-name="Path 4231" d="M172.28 123v31.76h19.54v-52.52h-19.04l-11.19 11.1v6.4h13.84Zm-86.1 31.76v-17.82l-2.85-2.85h20.56v-11.3h-17.7v-9.35h17.9l11.2-11.2h-46.4v52.52Zm25.44-27.18 6.41 6.52h17.61l1.12 1.22v6.51l-1.53 1.53h-16.38l-9.16 9.16v2.23h36.84l7.53-7.42V129.2l-6.51-6.4h-17.6l-1.13-1.23v-6.62l1.43-1.52h19.23l4.38-4.07v-7.13h-30.64l-11.6 11.7Z" fill="#fff"/></g></g></svg>