<svg xmlns="http://www.w3.org/2000/svg" viewBox="0 0 261 261"><defs><filter id="a" x="0" y="0" width="261" height="261" filterUnits="userSpaceOnUse"><feOffset dy="2"/><feGaussianBlur stdDeviation="7.5" result="b"/><feFlood flood-opacity=".1"/><feComposite operator="in" in2="b"/><feComposite in="SourceGraphic"/></filter></defs><g filter="url(#a)"><circle cx="108" cy="108" r="108" transform="translate(22.5 20.5)" fill="#fff"/></g><path d="M177.26 71.7h-43.1v29.51h4.53l-.13 67.17a5.73 5.73 0 0 1-.78.65h-15l-.53-.52v-67.3h4.27v-29.5H81.74v29.63h8.16v77.53l19.41 19.67h42.58l19.41-19.67v-77.53h9.2V71.71Z"/><path d="M143.22 81.02V91.9h4.66l.13 80.5-6.34 6.09h-22.52l-6.09-6.09.13-80.5h4.66V81.02H91.2V91.9h8.16V175l13.97 14.1h34.82l13.98-14.1v-83.1h9.19V81.02h-28.09Z" fill="#ef4135"/><path d="m195.12 149.88-8.54-19.29 8.4-19.28H66.87l8.41 19.28-8.54 19.29Z"/><path d="M86.92 118.81h20.06l-.78 6.48H86.15Zm26.92 0h35.85a4.26 4.26 0 0 1 4.14 4.15 12.32 12.32 0 0 1-.26 2.33h-45.81s.13-1.17.26-2.08a6.42 6.42 0 0 1 5.82-4.4Zm42.2-.12h16.95c2.72 0 5.3 1.29 4.92 5.56-.13 1.3-.13 1.04-.13 1.04h-22.65Zm-49.97 23.42.78-6.21h14.76l.25-2.72h-10.74c-2.07-.13-4.14-1.55-3.62-5.3h17.21c2.72 0 4.92 1.42 4.8 5.17-.14 1.68-.53 4.92-1.17 6.08a5.67 5.67 0 0 1-5.44 2.98Zm47.24-14.24s-.26 1.3-.38 2.08c-.4 1.68-1.3 3.23-3.76 3.23H138.7l-1.3 8.93h-7.63l1.81-14.1h21.75Zm1.69 0h7.76L160.7 142h-7.63Zm14.88 0h7.64l-1.82 14.24h-7.63Zm-84.12 0h20.06l-.65 5.32-12.42.12-.39 2.6h12.43l-.65 6.2H84.07Z" fill="#fff"/></svg>