<svg xmlns="http://www.w3.org/2000/svg" viewBox="0 0 261 261"><defs><clipPath id="b"><path d="M0 0h135.38v59.4H0Z"/></clipPath><filter id="a" x="0" y="0" width="261" height="261" filterUnits="userSpaceOnUse"><feOffset dy="2"/><feGaussianBlur stdDeviation="7.5" result="b"/><feFlood flood-opacity=".1"/><feComposite operator="in" in2="b"/><feComposite in="SourceGraphic"/></filter></defs><g filter="url(#a)"><circle cx="108" cy="108" r="108" transform="translate(22.5 20.5)" fill="#fff"/></g><path d="M48.26 71.41h165.9v114.18H48.26Z" fill="#fff"/><g clip-path="url(#b)" transform="translate(62.68 98.82)"><path d="M118.56 5.65A21.19 21.19 0 0 0 104.76 0a23.44 23.44 0 0 0-14.35 4.24 26.69 26.69 0 0 0-8.4 10.17 28.07 28.07 0 0 0-7.82-5.34c-2.77-1.13-6.1-1.64-8.93-.37a6.68 6.68 0 0 0-3.08 2.72 7 7 0 0 0-.85 4.12 5.9 5.9 0 0 0 1.72 3.56 11.08 11.08 0 0 0 3.68 2.2c1.52.63 3.1 1.08 4.69 1.56 1.5.45 3 .93 4.46 1.5a22.84 22.84 0 0 1 7.83 4.6c4.41 4.3 5.85 10.77 5.09 16.74a19.89 19.89 0 0 1-1.21 4.91c-.15.37-.29.74-.46 1.1a1.39 1.39 0 0 0-.11.29s.37.4.5.53c.52.51 1.03.96 1.56 1.42a23.67 23.67 0 0 0 6.76 3.9 23 23 0 0 0 15.26.42 18.73 18.73 0 0 0 7.4-4.6v4.88h16.87V.8h-16.8Zm-11.22 38.47a10.71 10.71 0 0 1-7.06-2.77 14.95 14.95 0 0 1-4.33-7.04 16.34 16.34 0 0 1 3.82-15.91 10.77 10.77 0 0 1 7.2-3.17 11.24 11.24 0 0 1 7.5 2.69c3.58 3.05 5.25 8.03 5.02 12.66-.22 4.66-2.43 9.38-6.5 11.9a10.68 10.68 0 0 1-5.65 1.64m-51.38-9.36c-.8-.3-1.55-.65-2.32-1.01a20.83 20.83 0 0 1-4.04-2.57 16.46 16.46 0 0 1-4.92-7.13 22.8 22.8 0 0 1-1.19-8.93 21.4 21.4 0 0 1 2.63-9.18 21.66 21.66 0 0 1 4.84-5.8H34l-.03 25.02v5.37a41.38 41.38 0 0 1-.22 4.94c-.37 2.91-1.3 6.3-4.07 7.86a8.4 8.4 0 0 1-4.38.9 7.2 7.2 0 0 1-4.27-1.39c-2.4-1.86-3.17-5.17-3.45-8.05-.14-1.58-.14-3.2-.14-4.78V.17H0v30.92a48.66 48.66 0 0 0 .76 10.34 23.72 23.72 0 0 0 3.48 8.48 19.34 19.34 0 0 0 6.53 5.94 25.58 25.58 0 0 0 9.04 2.94 42.02 42.02 0 0 0 9.61.25 29.19 29.19 0 0 0 8.9-2.06 19.95 19.95 0 0 0 7.1-4.9A21.08 21.08 0 0 0 49.64 45c.09-.2.14-.42.23-.65a28.81 28.81 0 0 0 6.95 5.29 13.57 13.57 0 0 0 8.45 1.58 7.34 7.34 0 0 0 3.85-1.86 6.55 6.55 0 0 0 1.9-3.6 6.33 6.33 0 0 0-.46-3.8 6.72 6.72 0 0 0-2.4-2.64 18.3 18.3 0 0 0-4.8-2.12c-1.84-.59-4.6-1.4-5.26-1.63-.62-.23-1.78-.65-2.15-.8" fill="#d71f27"/></g></svg>