<svg xmlns="http://www.w3.org/2000/svg" viewBox="0 0 261 261"><defs><filter id="a" x="0" y="0" width="261" height="261" filterUnits="userSpaceOnUse"><feOffset dy="2"/><feGaussianBlur stdDeviation="7.5" result="blur"/><feFlood flood-opacity=".1"/><feComposite operator="in" in2="blur"/><feComposite in="SourceGraphic"/></filter></defs><g data-name="Group 24566"><g filter="url(#a)" data-name="Group 24458"><circle data-name="Ellipse 34" cx="108" cy="108" r="108" transform="translate(22.5 20.5)" fill="#fff"/></g><path d="M134.8 114.3H92.94c-4.3 0-7.11 2.24-7.5 5.62-.14 1.25-.3 2.35-.3 2.35h55.73s.1-.83.2-1.5c.43-3.4-1.03-6.48-6.29-6.48m5.73 10.99s-.14 1.12-.3 2.34c-.34 2.42-2.15 4.24-5.53 4.24h-11.87l-1.32 10.78h-9.46l2.14-17.4 26.33.03m-56.3-10.98-.95 7.97H57.99l.96-7.97h25.27Zm-26.58 10.99H82.9l-.83 6.61H66.26l-.4 3.24h15.82l-.93 7.54H55.48l2.15-17.4m86.16-10.98h20.6c3.25 0 6.65 1.52 5.96 6.75l-.17 1.22H142.8l.99-7.97m-1.36 10.98 9.46.04-2.11 17.36h-9.46l2.11-17.4m17.96 0 9.46.04-2.15 17.36h-9.42l2.11-17.4m-54.84.03H84.78c-.7 4.53 1.58 6.59 4.8 6.59h12.8l-.4 3.27h-18.4l-.92 7.54h20.84c.66-.07 5.36-.16 6.94-4 .53-1.26.96-5.69 1.1-6.65.76-5.45-3.02-6.74-6-6.74m74.8-10.95 20.94-.07s4.56-.23 4.23 3.51l-1.06 10.78s-.43 3.21-3.5 3.21h-12.47l-.37 3.44h15.65l-.76 7.44h-25.97l1.62-13.43s.16-3.87 3.67-3.87h12.34l.26-3.37h-15.48Z" fill="#ef4135"/></g></svg>