<svg xmlns="http://www.w3.org/2000/svg" viewBox="0 0 261 261"><defs><filter id="a" x="0" y="0" width="261" height="261" filterUnits="userSpaceOnUse"><feOffset dy="2"/><feGaussianBlur stdDeviation="7.5" result="blur"/><feFlood flood-opacity=".1"/><feComposite operator="in" in2="blur"/><feComposite in="SourceGraphic"/></filter></defs><g data-name="Group 24571"><g filter="url(#a)" data-name="Group 24458"><circle data-name="Ellipse 34" cx="108" cy="108" r="108" transform="translate(22.5 20.5)" fill="#fff"/></g><path data-name="Path 4166" d="M56.58 150.52v-43.44h30.31v43.44Zm25.93-4.38v-34.69H60.94v34.7Z" fill="#ffd520"/><path data-name="Path 4167" d="M107.04 126.56h-1.88c-2.46-3.47-4.9-6.92-7.34-10.84v10.84H95.7v-15.12h1.88c2.46 3.46 4.9 6.89 7.32 10.78v-10.78h2.12v15.12h.02Zm4.91-5.97c.6-1.98 1.21-3.83 1.75-6.16.6 2.33 1.15 4.18 1.7 6.16Zm1-9.14-5.23 15.11h2.24l1.31-4.12h4.56l1.19 4.12h2.89l-4.78-15.12h-2.12l-.06.01Zm9.42 15.11v-13.08h-3.97v-2.03h10.51v2.03h-3.98v13.08h-2.56Zm7.42 0v-15.12h2.57v15.12h-2.57Zm10.55-1.93c-2.7 0-3.66-2.97-3.66-5.86s1.06-5.45 3.66-5.45 3.64 2.66 3.64 5.45-.94 5.86-3.64 5.86Zm0 2.12c3.95 0 6.4-3.51 6.4-8.03 0-4.23-2.71-7.6-6.4-7.6s-6.41 3.37-6.41 7.6c0 4.58 2.46 8.1 6.4 8.1v-.07Zm19.3-.19h-1.88c-2.46-3.47-4.9-6.93-7.34-10.84v10.84h-2.12v-15.12h1.87c2.46 3.46 4.91 6.89 7.33 10.78v-10.78h2.12v15.12h.02Zm4.94-5.97c.6-1.98 1.2-3.83 1.75-6.16.6 2.33 1.14 4.18 1.7 6.16h-3.45Zm1-9.14-5.22 15.12h2.24l1.31-4.12h4.56l1.18 4.12h2.9l-4.83-15.12h-2.15Zm7.72 0h2.58v13.08H181v2.04h-7.7Z"/><g data-name="Group 24559"><path data-name="Path 4168" d="M105.44 139.22v6.24a11.9 11.9 0 0 1-4.3.93c-4.45 0-7.26-3.46-7.26-7.9 0-4.12 2.8-7.74 7.34-7.74a6.47 6.47 0 0 1 3.67 1.17l-.84 1.79a5.62 5.62 0 0 0-2.77-.8c-2.76 0-4.64 2.19-4.64 5.62s2.12 5.7 4.39 5.7a3.83 3.83 0 0 0 1.81-.37v-4.64Zm9.27-6.18h-4.33v4.14h4.24v2.04h-4.24v4.88h5.1v2.03h-7.7V131h6.92v2.04Zm7.99 11.19c-2.7 0-3.65-2.98-3.65-5.87s1.06-5.45 3.65-5.45 3.65 2.66 3.65 5.45-.95 5.87-3.65 5.87Zm0 2.12c3.95 0 6.4-3.52 6.4-8.03 0-4.24-2.72-7.61-6.4-7.61s-6.41 3.37-6.41 7.6c0 4.56 2.45 8.08 6.4 8.08v-.04Zm18.86-7.13v6.24a11.9 11.9 0 0 1-4.3.93c-4.45 0-7.26-3.45-7.26-7.9 0-4.12 2.8-7.74 7.34-7.74a6.47 6.47 0 0 1 3.67 1.17l-.84 1.79a5.62 5.62 0 0 0-2.76-.8c-2.77 0-4.65 2.19-4.65 5.62s2.12 5.7 4.39 5.7a3.83 3.83 0 0 0 1.81-.37v-4.64Zm4.97-6.18h1.14a2.2 2.2 0 0 1 2.4 2.44 2.66 2.66 0 0 1-2.46 3l-1.06.06v-5.51Zm6.56 13.09-3-6.27a5.09 5.09 0 0 0 2.62-4.5c0-2.93-1.79-4.35-4.68-4.35h-4.04v15.12h2.6v-5.7h1.17l2.43 5.7h2.9Z"/><path data-name="Path 4169" d="M157.37 140.15c.6-1.98 1.2-3.83 1.74-6.16.6 2.33 1.15 4.17 1.7 6.16h-3.45Zm1-9.15-5.23 15.11h2.26l1.3-4.12h4.57l1.18 4.12h2.9L160.51 131h-2.16Zm11.86 0h-4.04v15.11h2.6v-5.69h1.17a4.94 4.94 0 0 0 4.97-5.05c-.05-2.94-1.84-4.38-4.7-4.38Zm-.37 7.46-1.06.07v-5.5h1.16a2.2 2.2 0 0 1 2.38 2.44 2.67 2.67 0 0 1-2.51 3.01l.03-.02Zm17.03 7.67h-2.6v-7.29h-5.37v7.28h-2.58V131h2.58v5.8h5.38v-5.76h2.6Zm2.48 0V131h2.58v15.11h-2.58v.01Zm14.23-12.38a5.44 5.44 0 0 0-2.66-.84c-2.64 0-4.55 2.18-4.55 5.62s2.12 5.7 4.62 5.7a4.9 4.9 0 0 0 2.6-.76l.7 1.88a6.6 6.6 0 0 1-3.4 1.06c-4.45 0-7.26-3.45-7.26-7.9 0-4.12 2.78-7.74 7.3-7.74a6.36 6.36 0 0 1 3.47 1.17Z"/></g></g></svg>