<svg xmlns="http://www.w3.org/2000/svg" viewBox="0 0 261 261"><defs><filter id="a" x="0" y="0" width="261" height="261" filterUnits="userSpaceOnUse"><feOffset dy="2"/><feGaussianBlur stdDeviation="7.5" result="b"/><feFlood flood-opacity=".1"/><feComposite operator="in" in2="b"/><feComposite in="SourceGraphic"/></filter></defs><g filter="url(#a)"><circle cx="108" cy="108" r="108" transform="translate(22.5 20.5)" fill="#fff"/></g><path d="M159.3 109.91h-54.78c-5.61 0-9.34 2.95-9.88 7.38l-.39 3.06h73.03l.25-1.94c.56-4.46-1.32-8.5-8.22-8.5m7.49 14.42s-.17 1.46-.4 3.09c-.44 3.2-2.8 5.55-7.23 5.55h-15.55l-1.76 14.14h-12.38l2.8-22.78h34.52ZM59.94 109.9l33.13.02-1.32 10.44h-33.1Zm-1.8 14.44h33.14l-1.07 8.62H69.45l-.5 4.26h20.73l-1.24 9.9H55.31Zm112.97-14.42h27.02c4.26 0 8.72 2 7.83 8.84-.17 1.24-.2 1.6-.2 1.6h-35.93Zm-1.8 14.42h12.37l-2.8 22.78h-12.4Zm23.54 0h12.37l-2.83 22.78h-12.36Zm-71.87 0h-27.2c-.93 5.95 2.04 8.65 6.28 8.65h16.74l-.53 4.26h-24.1l-1.23 9.87h27.3c.87-.05 7.01-.22 9.11-5.24.68-1.63 1.3-7.46 1.46-8.7.99-7.16-3.95-8.84-7.82-8.84" fill="#f5333f"/></svg>